<svg width="30" height="30" viewBox="0 0 30 30" fill="none" xmlns="http://www.w3.org/2000/svg">
<path d="M28.6019 22.0013C27.4787 19.98 24.5856 17.5513 23.3912 16.4944C23.0644 16.205 23.0294 15.7044 23.3269 15.3844C25.6062 12.935 27.4294 10.1206 28.0569 8.42001C28.3337 7.66876 27.7606 6.87501 26.9531 6.87501H24.6075C23.8344 6.87501 23.3819 7.15251 23.1662 7.59438C21.2719 11.4763 19.6469 13.1563 18.5094 14.1381C17.8725 14.6881 16.8794 14.2325 16.8794 13.3956C16.8794 11.7831 16.8794 9.69876 16.8794 8.22063C16.8794 7.50376 16.2931 6.92376 15.57 6.92376L11.285 6.87501C10.7456 6.87501 10.4375 7.48563 10.7612 7.91376L11.4687 8.92938C11.735 9.28126 11.8787 9.70939 11.8787 10.1488L11.875 14.7225C11.875 15.5181 10.9106 15.9069 10.3381 15.3494C8.40124 13.4631 6.72062 9.61126 6.11562 7.76938C5.94062 7.23626 5.44124 6.87626 4.87499 6.87501L2.56437 6.86938C1.69749 6.86938 1.06374 7.69126 1.29937 8.51876C3.41062 15.9294 7.74249 22.9794 15.4625 23.7438C16.2231 23.8188 16.8794 23.2063 16.8794 22.4481V20.0444C16.8794 19.355 17.42 18.7625 18.115 18.745C18.1394 18.7444 18.1637 18.7444 18.1881 18.7444C20.23 18.7444 22.5169 21.7163 23.3169 23.1063C23.5469 23.5063 23.9769 23.75 24.4419 23.75H27.55C28.4569 23.75 29.0387 22.7881 28.6019 22.0013Z" fill="white"/>
</svg>
